<?xml version="1.0" standalone="no"?>
<!DOCTYPE svg PUBLIC "-//W3C//DTD SVG 20010904//EN"
 "http://www.w3.org/TR/2001/REC-SVG-20010904/DTD/svg10.dtd">
<svg version="1.0" xmlns="http://www.w3.org/2000/svg"
 width="128.000000pt" height="128.000000pt" viewBox="0 0 128.000000 128.000000"
 preserveAspectRatio="xMidYMid meet">

<g transform="translate(0.000000,128.000000) scale(0.100000,-0.100000)"
fill="#000000" stroke="none">
<path d="M452 1181 c-157 -55 -289 -182 -348 -335 -23 -58 -28 -92 -32 -186
-4 -105 -2 -123 23 -195 61 -182 187 -309 368 -370 107 -36 247 -36 354 0 179
61 307 188 367 367 37 108 37 248 1 355 -61 179 -188 307 -367 367 -113 38
-251 37 -366 -3z m289 -152 c107 -53 155 -198 102 -304 -73 -145 -266 -175
-374 -58 -44 47 -61 92 -61 158 0 173 177 282 333 204z m162 -464 c43 -46 78
-140 84 -226 l6 -84 -46 -33 c-112 -80 -251 -114 -381 -94 -84 13 -165 46
-233 94 l-46 33 6 84 c7 99 43 185 102 244 39 38 59 45 71 26 3 -6 30 -22 58
-35 85 -40 184 -30 267 26 l44 29 24 -22 c14 -12 33 -31 44 -42z"/>
</g>
</svg>
